<svg width="24" height="24" viewBox="0 0 24 24" fill="none" xmlns="http://www.w3.org/2000/svg">
<rect width="24" height="24" fill="#E5E5E5"/>
<path d="M-2150 -1116C-2150 -1117.1 -2149.1 -1118 -2148 -1118H2676C2677.1 -1118 2678 -1117.1 2678 -1116V18189C2678 18190.1 2677.1 18191 2676 18191H-2148C-2149.1 18191 -2150 18190.1 -2150 18189V-1116Z" fill="#CDCDCD"/>
<path d="M-2148 -1117H2676V-1119H-2148V-1117ZM2677 -1116V18189H2679V-1116H2677ZM2676 18190H-2148V18192H2676V18190ZM-2149 18189V-1116H-2151V18189H-2149ZM-2148 18190C-2148.55 18190 -2149 18189.6 -2149 18189H-2151C-2151 18190.7 -2149.66 18192 -2148 18192V18190ZM2677 18189C2677 18189.6 2676.55 18190 2676 18190V18192C2677.66 18192 2679 18190.7 2679 18189H2677ZM2676 -1117C2676.55 -1117 2677 -1116.55 2677 -1116H2679C2679 -1117.66 2677.66 -1119 2676 -1119V-1117ZM-2148 -1119C-2149.66 -1119 -2151 -1117.66 -2151 -1116H-2149C-2149 -1116.55 -2148.55 -1117 -2148 -1117V-1119Z" fill="black" fill-opacity="0.1"/>
<rect width="1200" height="1148" transform="translate(-50 -1018)" fill="white"/>
<rect width="24" height="24" rx="12" fill="#F5F5F5"/>
<path fill-rule="evenodd" clip-rule="evenodd" d="M12 13.0605L14.6516 15.7121L15.7122 14.6514L13.0607 11.9999L15.7121 9.34844L14.6514 8.28778L12 10.9392L9.34826 8.28748L8.2876 9.34814L10.9393 11.9999L8.28748 14.6517L9.34814 15.7124L12 13.0605Z" fill="black"/>
</svg>
