<svg width="36" height="20" viewBox="0 0 36 20" fill="none" xmlns="http://www.w3.org/2000/svg">
<rect width="36" height="20" fill="#E5E5E5"/>
<path d="M-272 -1508C-272 -1509.1 -271.105 -1510 -270 -1510H4554C4555.1 -1510 4556 -1509.1 4556 -1508V17797C4556 17798.1 4555.1 17799 4554 17799H-270C-271.105 17799 -272 17798.1 -272 17797V-1508Z" fill="#CDCDCD"/>
<path d="M-270 -1509H4554V-1511H-270V-1509ZM4555 -1508V17797H4557V-1508H4555ZM4554 17798H-270V17800H4554V17798ZM-271 17797V-1508H-273V17797H-271ZM-270 17798C-270.552 17798 -271 17797.6 -271 17797H-273C-273 17798.7 -271.657 17800 -270 17800V17798ZM4555 17797C4555 17797.6 4554.55 17798 4554 17798V17800C4555.66 17800 4557 17798.7 4557 17797H4555ZM4554 -1509C4554.55 -1509 4555 -1508.55 4555 -1508H4557C4557 -1509.66 4555.66 -1511 4554 -1511V-1509ZM-270 -1511C-271.657 -1511 -273 -1509.66 -273 -1508H-271C-271 -1508.55 -270.552 -1509 -270 -1509V-1511Z" fill="black" fill-opacity="0.1"/>
<rect width="1852" height="3540" transform="translate(-172 -1410)" fill="#F4F4F4"/>
<rect x="-122" y="-406" width="941" height="566" rx="10" fill="white"/>
<rect x="1" y="3" width="34" height="14" rx="7" fill="#EBEBEB"/>
<circle cx="8" cy="10" r="5" fill="#F5F5F5"/>
</svg>
